# xmcd
#
# Track frame offsets: 
#        150
#        11063
#        24851
#        44597
#        55364
#        66486
#        79767
#        91537
#        103843
#        118594
#        131834
#        141047
#        153688
#        165569
#        178941
#        192139
#        206124
#        220492
#        233550
#        239196
#        252261
#        263348
#
# Disc length: 3693 seconds
#
# Revision: 0
# Processed by: cddbd v1.5.2PL0 Copyright (c) Steve Scherf et al.
# Submitted via: ExactAudioCopy v0.99pb5
#
DISCID=400e6b16
DTITLE=Evan Johns with Hambone Wilson and Roger Gavin - Railroad Songs
DTITLE=Rock-N-Roll
DYEAR=2008
DGENRE=Blues
TTITLE0=Freight Train Boogie
TTITLE1=Eastbound Train
TTITLE2=Railroad Bill
TTITLE3=Hate That Train
TTITLE4=900 Miles
TTITLE5=Railroad On The Great Devide
TTITLE6=Back To Virginia
TTITLE7=Swananoah tunnel
TTITLE8=Reubens Train
TTITLE9=In The Pines #2
TTITLE10=Canada To Washington
TTITLE11=America Was Built By The Train
TTITLE12=Railroad Corral
TTITLE13=9 Pound Hammer
TTITLE14=Midnight Special
TTITLE15=Help Me You Big Old Train
TTITLE16=John Henry
TTITLE17=Rock Island Line
TTITLE18=Xmas TheTime For Rockin'
TTITLE19=In The Pines #1
TTITLE20=Train On The Island
TTITLE21=This Train
EXTD=
EXTT0=
EXTT1=
EXTT2=
EXTT3=
EXTT4=
EXTT5=
EXTT6=
EXTT7=
EXTT8=
EXTT9=
EXTT10=
EXTT11=
EXTT12=
EXTT13=
EXTT14=
EXTT15=
EXTT16=
EXTT17=
EXTT18=
EXTT19=
EXTT20=
EXTT21=
PLAYORDER=
